<svg xmlns="http://www.w3.org/2000/svg" viewBox="0 0 65.56 62.55"><defs><style>.cls-1{fill:#e3e3e2;}</style></defs><g id="Calque_2" data-name="Calque 2"><g id="Calque_1-2" data-name="Calque 1"><path class="cls-1" d="M34.6,1.13l8.56,17.35a2,2,0,0,0,1.52,1.1l19.15,2.79A2,2,0,0,1,65,25.82L51.09,39.32a2.06,2.06,0,0,0-.58,1.79l3.27,19.07a2,2,0,0,1-2.93,2.13l-17.13-9a2,2,0,0,0-1.88,0l-17.13,9a2,2,0,0,1-2.93-2.13l3.27-19.07a2.06,2.06,0,0,0-.58-1.79L.61,25.82a2,2,0,0,1,1.12-3.45l19.15-2.79a2,2,0,0,0,1.52-1.1L31,1.13A2,2,0,0,1,34.6,1.13Z"/></g></g></svg>